<svg width="252" height="252" viewBox="0 0 252 252" fill="none" xmlns="http://www.w3.org/2000/svg">
<path d="M252 0H0V252H252V0Z" fill="white"/>
<path d="M4 4H8V8H4V4ZM8 4H12V8H8V4ZM12 4H16V8H12V4ZM16 4H20V8H16V4ZM20 4H24V8H20V4ZM24 4H28V8H24V4ZM28 4H32V8H28V4ZM40 4H44V8H40V4ZM68 4H72V8H68V4ZM72 4H76V8H72V4ZM80 4H84V8H80V4ZM84 4H88V8H84V4ZM100 4H104V8H100V4ZM104 4H108V8H104V4ZM112 4H116V8H112V4ZM120 4H124V8H120V4ZM124 4H128V8H124V4ZM136 4H140V8H136V4ZM144 4H148V8H144V4ZM148 4H152V8H148V4ZM156 4H160V8H156V4ZM160 4H164V8H160V4ZM172 4H176V8H172V4ZM180 4H184V8H180V4ZM192 4H196V8H192V4ZM196 4H200V8H196V4ZM208 4H212V8H208V4ZM212 4H216V8H212V4ZM220 4H224V8H220V4ZM224 4H228V8H224V4ZM228 4H232V8H228V4ZM232 4H236V8H232V4ZM236 4H240V8H236V4ZM240 4H244V8H240V4ZM244 4H248V8H244V4ZM4 8H8V12H4V8ZM28 8H32V12H28V8ZM36 8H40V12H36V8ZM40 8H44V12H40V8ZM44 8H48V12H44V8ZM48 8H52V12H48V8ZM52 8H56V12H52V8ZM60 8H64V12H60V8ZM64 8H68V12H64V8ZM68 8H72V12H68V8ZM88 8H92V12H88V8ZM92 8H96V12H92V8ZM96 8H100V12H96V8ZM100 8H104V12H100V8ZM104 8H108V12H104V8ZM112 8H116V12H112V8ZM116 8H120V12H116V8ZM120 8H124V12H120V8ZM128 8H132V12H128V8ZM156 8H160V12H156V8ZM160 8H164V12H160V8ZM168 8H172V12H168V8ZM172 8H176V12H172V8ZM176 8H180V12H176V8ZM184 8H188V12H184V8ZM196 8H200V12H196V8ZM200 8H204V12H200V8ZM208 8H212V12H208V8ZM212 8H216V12H212V8ZM220 8H224V12H220V8ZM244 8H248V12H244V8ZM4 12H8V16H4V12ZM12 12H16V16H12V12ZM16 12H20V16H16V12ZM20 12H24V16H20V12ZM28 12H32V16H28V12ZM44 12H48V16H44V12ZM52 12H56V16H52V12ZM56 12H60V16H56V12ZM68 12H72V16H68V12ZM72 12H76V16H72V12ZM76 12H80V16H76V12ZM80 12H84V16H80V12ZM100 12H104V16H100V12ZM104 12H108V16H104V12ZM108 12H112V16H108V12ZM124 12H128V16H124V12ZM128 12H132V16H128V12ZM136 12H140V16H136V12ZM144 12H148V16H144V12ZM164 12H168V16H164V12ZM176 12H180V16H176V12ZM192 12H196V16H192V12ZM200 12H204V16H200V12ZM204 12H208V16H204V12ZM208 12H212V16H208V12ZM212 12H216V16H212V12ZM220 12H224V16H220V12ZM228 12H232V16H228V12ZM232 12H236V16H232V12ZM236 12H240V16H236V12ZM244 12H248V16H244V12ZM4 16H8V20H4V16ZM12 16H16V20H12V16ZM16 16H20V20H16V16ZM20 16H24V20H20V16ZM28 16H32V20H28V16ZM36 16H40V20H36V16ZM52 16H56V20H52V16ZM60 16H64V20H60V16ZM68 16H72V20H68V16ZM84 16H88V20H84V16ZM92 16H96V20H92V16ZM96 16H100V20H96V16ZM112 16H116V20H112V16ZM116 16H120V20H116V16ZM128 16H132V20H128V16ZM136 16H140V20H136V16ZM148 16H152V20H148V16ZM156 16H160V20H156V16ZM160 16H164V20H160V16ZM164 16H168V20H164V16ZM168 16H172V20H168V16ZM172 16H176V20H172V16ZM180 16H184V20H180V16ZM184 16H188V20H184V16ZM200 16H204V20H200V16ZM204 16H208V20H204V16ZM212 16H216V20H212V16ZM220 16H224V20H220V16ZM228 16H232V20H228V16ZM232 16H236V20H232V16ZM236 16H240V20H236V16ZM244 16H248V20H244V16ZM4 20H8V24H4V20ZM12 20H16V24H12V20ZM16 20H20V24H16V20ZM20 20H24V24H20V20ZM28 20H32V24H28V20ZM40 20H44V24H40V20ZM64 20H68V24H64V20ZM72 20H76V24H72V20ZM76 20H80V24H76V20ZM88 20H92V24H88V20ZM92 20H96V24H92V20ZM104 20H108V24H104V20ZM108 20H112V24H108V20ZM112 20H116V24H112V20ZM116 20H120V24H116V20ZM120 20H124V24H120V20ZM124 20H128V24H124V20ZM128 20H132V24H128V20ZM132 20H136V24H132V20ZM136 20H140V24H136V20ZM144 20H148V24H144V20ZM152 20H156V24H152V20ZM160 20H164V24H160V20ZM164 20H168V24H164V20ZM172 20H176V24H172V20ZM184 20H188V24H184V20ZM188 20H192V24H188V20ZM192 20H196V24H192V20ZM196 20H200V24H196V20ZM204 20H208V24H204V20ZM208 20H212V24H208V20ZM220 20H224V24H220V20ZM228 20H232V24H228V20ZM232 20H236V24H232V20ZM236 20H240V24H236V20ZM244 20H248V24H244V20ZM4 24H8V28H4V24ZM28 24H32V28H28V24ZM36 24H40V28H36V24ZM48 24H52V28H48V24ZM52 24H56V28H52V24ZM64 24H68V28H64V24ZM68 24H72V28H68V24ZM76 24H80V28H76V24ZM84 24H88V28H84V24ZM96 24H100V28H96V24ZM100 24H104V28H100V24ZM104 24H108V28H104V24ZM108 24H112V28H108V24ZM116 24H120V28H116V24ZM132 24H136V28H132V24ZM136 24H140V28H136V24ZM144 24H148V28H144V24ZM148 24H152V28H148V24ZM152 24H156V28H152V24ZM156 24H160V28H156V24ZM164 24H168V28H164V24ZM184 24H188V28H184V24ZM192 24H196V28H192V24ZM196 24H200V28H196V24ZM200 24H204V28H200V24ZM204 24H208V28H204V24ZM220 24H224V28H220V24ZM244 24H248V28H244V24ZM4 28H8V32H4V28ZM8 28H12V32H8V28ZM12 28H16V32H12V28ZM16 28H20V32H16V28ZM20 28H24V32H20V28ZM24 28H28V32H24V28ZM28 28H32V32H28V28ZM36 28H40V32H36V28ZM44 28H48V32H44V28ZM52 28H56V32H52V28ZM60 28H64V32H60V28ZM68 28H72V32H68V28ZM76 28H80V32H76V28ZM84 28H88V32H84V28ZM92 28H96V32H92V28ZM100 28H104V32H100V28ZM108 28H112V32H108V28ZM116 28H120V32H116V28ZM124 28H128V32H124V28ZM132 28H136V32H132V28ZM140 28H144V32H140V28ZM148 28H152V32H148V28ZM156 28H160V32H156V28ZM164 28H168V32H164V28ZM172 28H176V32H172V28ZM180 28H184V32H180V28ZM188 28H192V32H188V28ZM196 28H200V32H196V28ZM204 28H208V32H204V28ZM212 28H216V32H212V28ZM220 28H224V32H220V28ZM224 28H228V32H224V28ZM228 28H232V32H228V28ZM232 28H236V32H232V28ZM236 28H240V32H236V28ZM240 28H244V32H240V28ZM244 28H248V32H244V28ZM40 32H44V36H40V32ZM48 32H52V36H48V32ZM52 32H56V36H52V32ZM56 32H60V36H56V32ZM60 32H64V36H60V32ZM64 32H68V36H64V32ZM68 32H72V36H68V32ZM72 32H76V36H72V32ZM76 32H80V36H76V32ZM84 32H88V36H84V32ZM88 32H92V36H88V32ZM108 32H112V36H108V32ZM112 32H116V36H112V32ZM116 32H120V36H116V32ZM132 32H136V36H132V32ZM144 32H148V36H144V32ZM152 32H156V36H152V32ZM164 32H168V36H164V32ZM168 32H172V36H168V32ZM172 32H176V36H172V32ZM176 32H180V36H176V32ZM180 32H184V36H180V32ZM192 32H196V36H192V32ZM196 32H200V36H196V32ZM200 32H204V36H200V32ZM4 36H8V40H4V36ZM8 36H12V40H8V36ZM12 36H16V40H12V36ZM16 36H20V40H16V36ZM20 36H24V40H20V36ZM28 36H32V40H28V36ZM32 36H36V40H32V36ZM36 36H40V40H36V36ZM44 36H48V40H44V36ZM52 36H56V40H52V36ZM56 36H60V40H56V36ZM60 36H64V40H60V36ZM76 36H80V40H76V36ZM104 36H108V40H104V36ZM108 36H112V40H108V36ZM112 36H116V40H112V36ZM116 36H120V40H116V36ZM120 36H124V40H120V36ZM124 36H128V40H124V36ZM128 36H132V40H128V36ZM132 36H136V40H132V36ZM140 36H144V40H140V36ZM144 36H148V40H144V36ZM148 36H152V40H148V36ZM156 36H160V40H156V36ZM160 36H164V40H160V36ZM164 36H168V40H164V36ZM168 36H172V40H168V36ZM176 36H180V40H176V36ZM188 36H192V40H188V36ZM196 36H200V40H196V36ZM204 36H208V40H204V36ZM212 36H216V40H212V36ZM216 36H220V40H216V36ZM224 36H228V40H224V36ZM232 36H236V40H232V36ZM240 36H244V40H240V36ZM8 40H12V44H8V40ZM12 40H16V44H12V40ZM36 40H40V44H36V40ZM64 40H68V44H64V40ZM68 40H72V44H68V40ZM72 40H76V44H72V40ZM76 40H80V44H76V40ZM80 40H84V44H80V40ZM84 40H88V44H84V40ZM112 40H116V44H112V40ZM128 40H132V44H128V40ZM136 40H140V44H136V40ZM148 40H152V44H148V40ZM172 40H176V44H172V40ZM184 40H188V44H184V40ZM208 40H212V44H208V40ZM216 40H220V44H216V40ZM220 40H224V44H220V40ZM224 40H228V44H224V40ZM232 40H236V44H232V40ZM236 40H240V44H236V40ZM240 40H244V44H240V40ZM4 44H8V48H4V44ZM16 44H20V48H16V44ZM20 44H24V48H20V44ZM24 44H28V48H24V44ZM28 44H32V48H28V44ZM52 44H56V48H52V44ZM64 44H68V48H64V44ZM68 44H72V48H68V44ZM76 44H80V48H76V44ZM84 44H88V48H84V44ZM88 44H92V48H88V44ZM92 44H96V48H92V44ZM100 44H104V48H100V44ZM104 44H108V48H104V44ZM136 44H140V48H136V44ZM140 44H144V48H140V44ZM144 44H148V48H144V44ZM148 44H152V48H148V44ZM152 44H156V48H152V44ZM176 44H180V48H176V44ZM188 44H192V48H188V44ZM192 44H196V48H192V44ZM196 44H200V48H196V44ZM208 44H212V48H208V44ZM212 44H216V48H212V44ZM220 44H224V48H220V44ZM224 44H228V48H224V44ZM228 44H232V48H228V44ZM240 44H244V48H240V44ZM244 44H248V48H244V44ZM12 48H16V52H12V48ZM20 48H24V52H20V48ZM24 48H28V52H24V48ZM32 48H36V52H32V48ZM36 48H40V52H36V48ZM44 48H48V52H44V48ZM48 48H52V52H48V48ZM52 48H56V52H52V48ZM56 48H60V52H56V48ZM60 48H64V52H60V48ZM72 48H76V52H72V48ZM76 48H80V52H76V48ZM80 48H84V52H80V48ZM84 48H88V52H84V48ZM88 48H92V52H88V48ZM92 48H96V52H92V48ZM100 48H104V52H100V48ZM104 48H108V52H104V48ZM112 48H116V52H112V48ZM124 48H128V52H124V48ZM128 48H132V52H128V48ZM148 48H152V52H148V48ZM152 48H156V52H152V48ZM168 48H172V52H168V48ZM184 48H188V52H184V48ZM188 48H192V52H188V48ZM192 48H196V52H192V48ZM196 48H200V52H196V48ZM208 48H212V52H208V48ZM224 48H228V52H224V48ZM232 48H236V52H232V48ZM236 48H240V52H236V48ZM240 48H244V52H240V48ZM244 48H248V52H244V48ZM4 52H8V56H4V52ZM8 52H12V56H8V52ZM12 52H16V56H12V52ZM16 52H20V56H16V52ZM28 52H32V56H28V52ZM32 52H36V56H32V52ZM36 52H40V56H36V52ZM44 52H48V56H44V52ZM48 52H52V56H48V52ZM52 52H56V56H52V52ZM60 52H64V56H60V52ZM64 52H68V56H64V52ZM68 52H72V56H68V52ZM72 52H76V56H72V52ZM80 52H84V56H80V52ZM88 52H92V56H88V52ZM104 52H108V56H104V52ZM120 52H124V56H120V52ZM136 52H140V56H136V52ZM140 52H144V56H140V52ZM144 52H148V56H144V52ZM148 52H152V56H148V52ZM152 52H156V56H152V52ZM164 52H168V56H164V52ZM196 52H200V56H196V52ZM204 52H208V56H204V52ZM208 52H212V56H208V52ZM212 52H216V56H212V52ZM216 52H220V56H216V52ZM224 52H228V56H224V52ZM228 52H232V56H228V52ZM232 52H236V56H232V52ZM236 52H240V56H236V52ZM240 52H244V56H240V52ZM244 52H248V56H244V52ZM20 56H24V60H20V56ZM40 56H44V60H40V56ZM48 56H52V60H48V56ZM56 56H60V60H56V56ZM60 56H64V60H60V56ZM64 56H68V60H64V56ZM68 56H72V60H68V56ZM72 56H76V60H72V56ZM76 56H80V60H76V56ZM92 56H96V60H92V56ZM112 56H116V60H112V56ZM120 56H124V60H120V56ZM128 56H132V60H128V56ZM132 56H136V60H132V56ZM136 56H140V60H136V56ZM144 56H148V60H144V56ZM148 56H152V60H148V56ZM152 56H156V60H152V56ZM156 56H160V60H156V56ZM160 56H164V60H160V56ZM176 56H180V60H176V56ZM184 56H188V60H184V56ZM188 56H192V60H188V56ZM196 56H200V60H196V56ZM200 56H204V60H200V56ZM208 56H212V60H208V56ZM220 56H224V60H220V56ZM232 56H236V60H232V56ZM240 56H244V60H240V56ZM244 56H248V60H244V56ZM8 60H12V64H8V60ZM16 60H20V64H16V60ZM20 60H24V64H20V60ZM28 60H32V64H28V60ZM32 60H36V64H32V60ZM48 60H52V64H48V60ZM52 60H56V64H52V60ZM64 60H68V64H64V60ZM72 60H76V64H72V60ZM76 60H80V64H76V60ZM92 60H96V64H92V60ZM100 60H104V64H100V60ZM104 60H108V64H104V60ZM116 60H120V64H116V60ZM132 60H136V64H132V60ZM148 60H152V64H148V60ZM152 60H156V64H152V60ZM156 60H160V64H156V60ZM160 60H164V64H160V60ZM168 60H172V64H168V60ZM172 60H176V64H172V60ZM180 60H184V64H180V60ZM200 60H204V64H200V60ZM204 60H208V64H204V60ZM208 60H212V64H208V60ZM212 60H216V64H212V60ZM216 60H220V64H216V60ZM228 60H232V64H228V60ZM232 60H236V64H232V60ZM236 60H240V64H236V60ZM244 60H248V64H244V60ZM4 64H8V68H4V64ZM8 64H12V68H8V64ZM12 64H16V68H12V64ZM16 64H20V68H16V64ZM20 64H24V68H20V64ZM32 64H36V68H32V64ZM44 64H48V68H44V64ZM48 64H52V68H48V64ZM56 64H60V68H56V64ZM64 64H68V68H64V64ZM68 64H72V68H68V64ZM72 64H76V68H72V64ZM76 64H80V68H76V64ZM88 64H92V68H88V64ZM92 64H96V68H92V64ZM108 64H112V68H108V64ZM112 64H116V68H112V64ZM116 64H120V68H116V64ZM120 64H124V68H120V64ZM132 64H136V68H132V64ZM140 64H144V68H140V64ZM152 64H156V68H152V64ZM168 64H172V68H168V64ZM180 64H184V68H180V64ZM184 64H188V68H184V64ZM196 64H200V68H196V64ZM208 64H212V68H208V64ZM212 64H216V68H212V64ZM220 64H224V68H220V64ZM224 64H228V68H224V64ZM228 64H232V68H228V64ZM232 64H236V68H232V64ZM4 68H8V72H4V68ZM12 68H16V72H12V68ZM24 68H28V72H24V68ZM28 68H32V72H28V68ZM40 68H44V72H40V68ZM48 68H52V72H48V68ZM76 68H80V72H76V68ZM80 68H84V72H80V68ZM84 68H88V72H84V68ZM92 68H96V72H92V68ZM100 68H104V72H100V68ZM108 68H112V72H108V68ZM112 68H116V72H112V68ZM124 68H128V72H124V68ZM132 68H136V72H132V68ZM148 68H152V72H148V68ZM168 68H172V72H168V68ZM172 68H176V72H172V68ZM184 68H188V72H184V68ZM196 68H200V72H196V68ZM204 68H208V72H204V68ZM212 68H216V72H212V68ZM216 68H220V72H216V68ZM232 68H236V72H232V68ZM4 72H8V76H4V72ZM12 72H16V76H12V72ZM48 72H52V76H48V72ZM52 72H56V76H52V72ZM56 72H60V76H56V72ZM64 72H68V76H64V72ZM80 72H84V76H80V72ZM88 72H92V76H88V72ZM96 72H100V76H96V72ZM104 72H108V76H104V72ZM112 72H116V76H112V72ZM120 72H124V76H120V72ZM124 72H128V76H124V72ZM128 72H132V76H128V72ZM136 72H140V76H136V72ZM152 72H156V76H152V72ZM156 72H160V76H156V72ZM164 72H168V76H164V72ZM172 72H176V76H172V72ZM176 72H180V76H176V72ZM184 72H188V76H184V72ZM192 72H196V76H192V72ZM196 72H200V76H196V72ZM204 72H208V76H204V72ZM220 72H224V76H220V72ZM224 72H228V76H224V72ZM228 72H232V76H228V72ZM236 72H240V76H236V72ZM8 76H12V80H8V76ZM16 76H20V80H16V76ZM24 76H28V80H24V76ZM28 76H32V80H28V76ZM32 76H36V80H32V76ZM40 76H44V80H40V76ZM52 76H56V80H52V76ZM56 76H60V80H56V76ZM80 76H84V80H80V76ZM88 76H92V80H88V76ZM124 76H128V80H124V76ZM128 76H132V80H128V76ZM148 76H152V80H148V76ZM156 76H160V80H156V76ZM168 76H172V80H168V76ZM180 76H184V80H180V76ZM184 76H188V80H184V76ZM196 76H200V80H196V76ZM204 76H208V80H204V76ZM216 76H220V80H216V76ZM224 76H228V80H224V76ZM240 76H244V80H240V76ZM244 76H248V80H244V76ZM4 80H8V84H4V80ZM8 80H12V84H8V80ZM12 80H16V84H12V80ZM16 80H20V84H16V80ZM20 80H24V84H20V80ZM40 80H44V84H40V80ZM44 80H48V84H44V80ZM56 80H60V84H56V80ZM60 80H64V84H60V80ZM64 80H68V84H64V80ZM76 80H80V84H76V80ZM80 80H84V84H80V80ZM92 80H96V84H92V80ZM96 80H100V84H96V80ZM108 80H112V84H108V80ZM116 80H120V84H116V80ZM120 80H124V84H120V80ZM128 80H132V84H128V80ZM132 80H136V84H132V80ZM140 80H144V84H140V80ZM148 80H152V84H148V80ZM156 80H160V84H156V80ZM160 80H164V84H160V80ZM168 80H172V84H168V80ZM176 80H180V84H176V80ZM184 80H188V84H184V80ZM188 80H192V84H188V80ZM196 80H200V84H196V80ZM200 80H204V84H200V80ZM208 80H212V84H208V80ZM220 80H224V84H220V80ZM224 80H228V84H224V80ZM232 80H236V84H232V80ZM236 80H240V84H236V80ZM240 80H244V84H240V80ZM8 84H12V88H8V84ZM12 84H16V88H12V84ZM20 84H24V88H20V84ZM24 84H28V88H24V84ZM28 84H32V88H28V84ZM36 84H40V88H36V84ZM44 84H48V88H44V84ZM52 84H56V88H52V84ZM56 84H60V88H56V84ZM68 84H72V88H68V84ZM76 84H80V88H76V84ZM96 84H100V88H96V84ZM112 84H116V88H112V84ZM116 84H120V88H116V84ZM124 84H128V88H124V84ZM128 84H132V88H128V84ZM136 84H140V88H136V84ZM140 84H144V88H140V84ZM148 84H152V88H148V84ZM152 84H156V88H152V84ZM168 84H172V88H168V84ZM172 84H176V88H172V84ZM180 84H184V88H180V84ZM184 84H188V88H184V84ZM188 84H192V88H188V84ZM200 84H204V88H200V84ZM220 84H224V88H220V84ZM224 84H228V88H224V84ZM240 84H244V88H240V84ZM244 84H248V88H244V84ZM12 88H16V92H12V88ZM16 88H20V92H16V88ZM20 88H24V92H20V88ZM40 88H44V92H40V88ZM44 88H48V92H44V88ZM52 88H56V92H52V88ZM56 88H60V92H56V88ZM60 88H64V92H60V88ZM64 88H68V92H64V88ZM72 88H76V92H72V88ZM76 88H80V92H76V88ZM80 88H84V92H80V88ZM100 88H104V92H100V88ZM104 88H108V92H104V88ZM120 88H124V92H120V88ZM124 88H128V92H124V88ZM128 88H132V92H128V88ZM140 88H144V92H140V88ZM156 88H160V92H156V88ZM172 88H176V92H172V88ZM180 88H184V92H180V88ZM184 88H188V92H184V88ZM188 88H192V92H188V88ZM192 88H196V92H192V88ZM196 88H200V92H196V88ZM200 88H204V92H200V88ZM204 88H208V92H204V88ZM208 88H212V92H208V88ZM212 88H216V92H212V88ZM220 88H224V92H220V88ZM232 88H236V92H232V88ZM12 92H16V96H12V92ZM20 92H24V96H20V92ZM24 92H28V96H24V92ZM28 92H32V96H28V92ZM32 92H36V96H32V92ZM36 92H40V96H36V92ZM44 92H48V96H44V92ZM48 92H52V96H48V92ZM56 92H60V96H56V92ZM60 92H64V96H60V92ZM64 92H68V96H64V92ZM68 92H72V96H68V92ZM72 92H76V96H72V92ZM80 92H84V96H80V92ZM84 92H88V96H84V92ZM100 92H104V96H100V92ZM112 92H116V96H112V92ZM116 92H120V96H116V92ZM132 92H136V96H132V92ZM136 92H140V96H136V92ZM148 92H152V96H148V92ZM156 92H160V96H156V92ZM164 92H168V96H164V92ZM168 92H172V96H168V92ZM176 92H180V96H176V92ZM196 92H200V96H196V92ZM200 92H204V96H200V92ZM220 92H224V96H220V92ZM224 92H228V96H224V92ZM228 92H232V96H228V92ZM240 92H244V96H240V92ZM8 96H12V100H8V96ZM16 96H20V100H16V96ZM20 96H24V100H20V96ZM24 96H28V100H24V96ZM36 96H40V100H36V96ZM52 96H56V100H52V96ZM56 96H60V100H56V96ZM60 96H64V100H60V96ZM64 96H68V100H64V96ZM68 96H72V100H68V96ZM80 96H84V100H80V96ZM88 96H92V100H88V96ZM104 96H108V100H104V96ZM112 96H116V100H112V96ZM120 96H124V100H120V96ZM124 96H128V100H124V96ZM144 96H148V100H144V96ZM152 96H156V100H152V96ZM164 96H168V100H164V96ZM168 96H172V100H168V96ZM172 96H176V100H172V96ZM180 96H184V100H180V96ZM184 96H188V100H184V96ZM192 96H196V100H192V96ZM200 96H204V100H200V96ZM208 96H212V100H208V96ZM220 96H224V100H220V96ZM240 96H244V100H240V96ZM244 96H248V100H244V96ZM4 100H8V104H4V100ZM8 100H12V104H8V100ZM16 100H20V104H16V100ZM24 100H28V104H24V100ZM28 100H32V104H28V100ZM32 100H36V104H32V100ZM52 100H56V104H52V100ZM64 100H68V104H64V100ZM72 100H76V104H72V100ZM80 100H84V104H80V100ZM92 100H96V104H92V100ZM96 100H100V104H96V100ZM100 100H104V104H100V100ZM116 100H120V104H116V100ZM124 100H128V104H124V100ZM128 100H132V104H128V100ZM136 100H140V104H136V100ZM140 100H144V104H140V100ZM152 100H156V104H152V100ZM156 100H160V104H156V100ZM160 100H164V104H160V100ZM180 100H184V104H180V100ZM204 100H208V104H204V100ZM212 100H216V104H212V100ZM220 100H224V104H220V100ZM224 100H228V104H224V100ZM232 100H236V104H232V100ZM16 104H20V108H16V104ZM20 104H24V108H20V104ZM40 104H44V108H40V104ZM44 104H48V108H44V104ZM52 104H56V108H52V104ZM64 104H68V108H64V104ZM76 104H80V108H76V104ZM96 104H100V108H96V104ZM104 104H108V108H104V104ZM144 104H148V108H144V104ZM168 104H172V108H168V104ZM172 104H176V108H172V104ZM176 104H180V108H176V104ZM180 104H184V108H180V104ZM184 104H188V108H184V104ZM188 104H192V108H188V104ZM196 104H200V108H196V104ZM200 104H204V108H200V104ZM208 104H212V108H208V104ZM220 104H224V108H220V104ZM224 104H228V108H224V104ZM228 104H232V108H228V104ZM232 104H236V108H232V104ZM236 104H240V108H236V104ZM240 104H244V108H240V104ZM4 108H8V112H4V108ZM8 108H12V112H8V108ZM12 108H16V112H12V108ZM28 108H32V112H28V108ZM36 108H40V112H36V108ZM52 108H56V112H52V108ZM56 108H60V112H56V108ZM60 108H64V112H60V108ZM72 108H76V112H72V108ZM76 108H80V112H76V108ZM80 108H84V112H80V108ZM88 108H92V112H88V108ZM92 108H96V112H92V108ZM104 108H108V112H104V108ZM112 108H116V112H112V108ZM120 108H124V112H120V108ZM124 108H128V112H124V108ZM128 108H132V112H128V108ZM132 108H136V112H132V108ZM148 108H152V112H148V108ZM152 108H156V112H152V108ZM156 108H160V112H156V108ZM160 108H164V112H160V108ZM168 108H172V112H168V108ZM172 108H176V112H172V108ZM188 108H192V112H188V108ZM192 108H196V112H192V108ZM196 108H200V112H196V108ZM204 108H208V112H204V108ZM220 108H224V112H220V108ZM224 108H228V112H224V108ZM232 108H236V112H232V108ZM240 108H244V112H240V108ZM12 112H16V116H12V112ZM16 112H20V116H16V112ZM20 112H24V116H20V112ZM24 112H28V116H24V112ZM36 112H40V116H36V112ZM44 112H48V116H44V112ZM48 112H52V116H48V112ZM68 112H72V116H68V112ZM76 112H80V116H76V112ZM96 112H100V116H96V112ZM100 112H104V116H100V112ZM116 112H120V116H116V112ZM132 112H136V116H132V112ZM152 112H156V116H152V112ZM156 112H160V116H156V112ZM160 112H164V116H160V112ZM164 112H168V116H164V112ZM180 112H184V116H180V112ZM184 112H188V116H184V112ZM192 112H196V116H192V112ZM196 112H200V116H196V112ZM200 112H204V116H200V112ZM208 112H212V116H208V112ZM212 112H216V116H212V112ZM216 112H220V116H216V112ZM220 112H224V116H220V112ZM232 112H236V116H232V112ZM236 112H240V116H236V112ZM240 112H244V116H240V112ZM12 116H16V120H12V116ZM16 116H20V120H16V116ZM20 116H24V120H20V116ZM24 116H28V120H24V116ZM28 116H32V120H28V116ZM32 116H36V120H32V116ZM36 116H40V120H36V116ZM56 116H60V120H56V116ZM60 116H64V120H60V116ZM64 116H68V120H64V116ZM80 116H84V120H80V116ZM88 116H92V120H88V116ZM104 116H108V120H104V116ZM112 116H116V120H112V116ZM116 116H120V120H116V116ZM120 116H124V120H120V116ZM124 116H128V120H124V116ZM128 116H132V120H128V116ZM132 116H136V120H132V116ZM136 116H140V120H136V116ZM140 116H144V120H140V116ZM148 116H152V120H148V116ZM160 116H164V120H160V116ZM164 116H168V120H164V116ZM176 116H180V120H176V116ZM180 116H184V120H180V116ZM184 116H188V120H184V116ZM196 116H200V120H196V116ZM208 116H212V120H208V116ZM212 116H216V120H212V116ZM216 116H220V120H216V116ZM220 116H224V120H220V116ZM224 116H228V120H224V116ZM228 116H232V120H228V116ZM232 116H236V120H232V116ZM236 116H240V120H236V116ZM240 116H244V120H240V116ZM244 116H248V120H244V116ZM4 120H8V124H4V120ZM12 120H16V124H12V120ZM20 120H24V124H20V120ZM36 120H40V124H36V120ZM40 120H44V124H40V120ZM44 120H48V124H44V120ZM52 120H56V124H52V120ZM56 120H60V124H56V120ZM64 120H68V124H64V120ZM68 120H72V124H68V120ZM76 120H80V124H76V120ZM84 120H88V124H84V120ZM92 120H96V124H92V120ZM104 120H108V124H104V120ZM116 120H120V124H116V120ZM132 120H136V124H132V120ZM140 120H144V124H140V120ZM148 120H152V124H148V120ZM152 120H156V124H152V120ZM156 120H160V124H156V120ZM184 120H188V124H184V120ZM196 120H200V124H196V120ZM204 120H208V124H204V120ZM208 120H212V124H208V120ZM212 120H216V124H212V120ZM228 120H232V124H228V120ZM232 120H236V124H232V120ZM240 120H244V124H240V120ZM4 124H8V128H4V124ZM12 124H16V128H12V124ZM16 124H20V128H16V124ZM20 124H24V128H20V124ZM28 124H32V128H28V124ZM36 124H40V128H36V124ZM40 124H44V128H40V124ZM44 124H48V128H44V124ZM48 124H52V128H48V124ZM60 124H64V128H60V124ZM64 124H68V128H64V124ZM68 124H72V128H68V124ZM72 124H76V128H72V124ZM76 124H80V128H76V124ZM84 124H88V128H84V124ZM88 124H92V128H88V124ZM100 124H104V128H100V124ZM104 124H108V128H104V124ZM116 124H120V128H116V124ZM124 124H128V128H124V124ZM132 124H136V128H132V124ZM136 124H140V128H136V124ZM140 124H144V128H140V124ZM148 124H152V128H148V124ZM156 124H160V128H156V124ZM172 124H176V128H172V124ZM176 124H180V128H176V124ZM180 124H184V128H180V124ZM184 124H188V128H184V124ZM188 124H192V128H188V124ZM196 124H200V128H196V124ZM204 124H208V128H204V124ZM208 124H212V128H208V124ZM212 124H216V128H212V124ZM220 124H224V128H220V124ZM228 124H232V128H228V124ZM232 124H236V128H232V124ZM244 124H248V128H244V124ZM8 128H12V132H8V128ZM12 128H16V132H12V128ZM20 128H24V132H20V128ZM36 128H40V132H36V128ZM48 128H52V132H48V128ZM52 128H56V132H52V128ZM56 128H60V132H56V128ZM60 128H64V132H60V128ZM64 128H68V132H64V128ZM68 128H72V132H68V128ZM76 128H80V132H76V128ZM100 128H104V132H100V128ZM108 128H112V132H108V128ZM116 128H120V132H116V128ZM132 128H136V132H132V128ZM140 128H144V132H140V128ZM180 128H184V132H180V128ZM184 128H188V132H184V128ZM212 128H216V132H212V128ZM228 128H232V132H228V128ZM232 128H236V132H232V128ZM240 128H244V132H240V128ZM244 128H248V132H244V128ZM4 132H8V136H4V132ZM12 132H16V136H12V132ZM20 132H24V136H20V132ZM24 132H28V136H24V132ZM28 132H32V136H28V132ZM32 132H36V136H32V132ZM36 132H40V136H36V132ZM44 132H48V136H44V132ZM52 132H56V136H52V132ZM56 132H60V136H56V132ZM60 132H64V136H60V132ZM64 132H68V136H64V132ZM80 132H84V136H80V132ZM84 132H88V136H84V132ZM88 132H92V136H88V132ZM96 132H100V136H96V132ZM100 132H104V136H100V132ZM104 132H108V136H104V132ZM108 132H112V136H108V132ZM116 132H120V136H116V132ZM120 132H124V136H120V132ZM124 132H128V136H124V132ZM128 132H132V136H128V132ZM132 132H136V136H132V132ZM152 132H156V136H152V132ZM156 132H160V136H156V132ZM168 132H172V136H168V132ZM180 132H184V136H180V132ZM184 132H188V136H184V132ZM188 132H192V136H188V132ZM196 132H200V136H196V132ZM212 132H216V136H212V132ZM216 132H220V136H216V132ZM220 132H224V136H220V132ZM224 132H228V136H224V132ZM228 132H232V136H228V132ZM232 132H236V136H232V132ZM236 132H240V136H236V132ZM8 136H12V140H8V136ZM20 136H24V140H20V136ZM36 136H40V140H36V136ZM40 136H44V140H40V136ZM44 136H48V140H44V136ZM52 136H56V140H52V136ZM68 136H72V140H68V136ZM72 136H76V140H72V136ZM84 136H88V140H84V136ZM100 136H104V140H100V136ZM120 136H124V140H120V136ZM128 136H132V140H128V136ZM132 136H136V140H132V136ZM136 136H140V140H136V136ZM140 136H144V140H140V136ZM148 136H152V140H148V136ZM156 136H160V140H156V136ZM160 136H164V140H160V136ZM164 136H168V140H164V136ZM180 136H184V140H180V136ZM208 136H212V140H208V136ZM236 136H240V140H236V136ZM16 140H20V144H16V140ZM20 140H24V144H20V140ZM28 140H32V144H28V140ZM36 140H40V144H36V140ZM48 140H52V144H48V140ZM52 140H56V144H52V140ZM60 140H64V144H60V140ZM64 140H68V144H64V140ZM68 140H72V144H68V140ZM72 140H76V144H72V140ZM80 140H84V144H80V140ZM84 140H88V144H84V140ZM88 140H92V144H88V140ZM92 140H96V144H92V140ZM96 140H100V144H96V140ZM100 140H104V144H100V140ZM104 140H108V144H104V140ZM112 140H116V144H112V140ZM124 140H128V144H124V140ZM128 140H132V144H128V140ZM132 140H136V144H132V140ZM148 140H152V144H148V140ZM156 140H160V144H156V140ZM168 140H172V144H168V140ZM180 140H184V144H180V140ZM192 140H196V144H192V140ZM200 140H204V144H200V140ZM204 140H208V144H204V140ZM208 140H212V144H208V140ZM216 140H220V144H216V140ZM220 140H224V144H220V140ZM244 140H248V144H244V140ZM8 144H12V148H8V144ZM12 144H16V148H12V144ZM20 144H24V148H20V144ZM24 144H28V148H24V144ZM36 144H40V148H36V144ZM40 144H44V148H40V144ZM44 144H48V148H44V144ZM48 144H52V148H48V144ZM52 144H56V148H52V144ZM68 144H72V148H68V144ZM72 144H76V148H72V144ZM76 144H80V148H76V144ZM88 144H92V148H88V144ZM100 144H104V148H100V144ZM108 144H112V148H108V144ZM116 144H120V148H116V144ZM120 144H124V148H120V144ZM124 144H128V148H124V144ZM132 144H136V148H132V144ZM136 144H140V148H136V144ZM148 144H152V148H148V144ZM152 144H156V148H152V144ZM156 144H160V148H156V144ZM160 144H164V148H160V144ZM172 144H176V148H172V144ZM176 144H180V148H176V144ZM180 144H184V148H180V144ZM184 144H188V148H184V144ZM188 144H192V148H188V144ZM192 144H196V148H192V144ZM208 144H212V148H208V144ZM216 144H220V148H216V144ZM220 144H224V148H220V144ZM228 144H232V148H228V144ZM232 144H236V148H232V144ZM236 144H240V148H236V144ZM240 144H244V148H240V144ZM244 144H248V148H244V144ZM8 148H12V152H8V148ZM20 148H24V152H20V148ZM24 148H28V152H24V148ZM28 148H32V152H28V148ZM44 148H48V152H44V148ZM52 148H56V152H52V148ZM56 148H60V152H56V148ZM60 148H64V152H60V148ZM68 148H72V152H68V148ZM84 148H88V152H84V148ZM88 148H92V152H88V148ZM96 148H100V152H96V148ZM112 148H116V152H112V148ZM116 148H120V152H116V148ZM124 148H128V152H124V148ZM132 148H136V152H132V148ZM148 148H152V152H148V148ZM160 148H164V152H160V148ZM164 148H168V152H164V148ZM172 148H176V152H172V148ZM176 148H180V152H176V148ZM184 148H188V152H184V148ZM188 148H192V152H188V148ZM200 148H204V152H200V148ZM208 148H212V152H208V148ZM224 148H228V152H224V148ZM228 148H232V152H228V148ZM232 148H236V152H232V148ZM240 148H244V152H240V148ZM244 148H248V152H244V148ZM4 152H8V156H4V152ZM8 152H12V156H8V152ZM24 152H28V156H24V152ZM36 152H40V156H36V152ZM40 152H44V156H40V152ZM48 152H52V156H48V152ZM52 152H56V156H52V152ZM56 152H60V156H56V152ZM60 152H64V156H60V152ZM64 152H68V156H64V152ZM68 152H72V156H68V152ZM88 152H92V156H88V152ZM92 152H96V156H92V152ZM104 152H108V156H104V152ZM116 152H120V156H116V152ZM120 152H124V156H120V152ZM124 152H128V156H124V152ZM136 152H140V156H136V152ZM148 152H152V156H148V152ZM156 152H160V156H156V152ZM160 152H164V156H160V152ZM164 152H168V156H164V152ZM172 152H176V156H172V152ZM184 152H188V156H184V152ZM188 152H192V156H188V152ZM192 152H196V156H192V152ZM196 152H200V156H196V152ZM200 152H204V156H200V152ZM204 152H208V156H204V152ZM228 152H232V156H228V152ZM232 152H236V156H232V152ZM244 152H248V156H244V152ZM8 156H12V160H8V156ZM16 156H20V160H16V156ZM24 156H28V160H24V156ZM28 156H32V160H28V156ZM32 156H36V160H32V156ZM36 156H40V160H36V156ZM48 156H52V160H48V156ZM56 156H60V160H56V156ZM64 156H68V160H64V156ZM68 156H72V160H68V156ZM76 156H80V160H76V156ZM84 156H88V160H84V156ZM104 156H108V160H104V156ZM108 156H112V160H108V156ZM112 156H116V160H112V156ZM120 156H124V160H120V156ZM124 156H128V160H124V156ZM148 156H152V160H148V156ZM156 156H160V160H156V156ZM160 156H164V160H160V156ZM164 156H168V160H164V156ZM180 156H184V160H180V156ZM184 156H188V160H184V156ZM196 156H200V160H196V156ZM208 156H212V160H208V156ZM212 156H216V160H212V156ZM236 156H240V160H236V156ZM244 156H248V160H244V156ZM4 160H8V164H4V160ZM16 160H20V164H16V160ZM20 160H24V164H20V160ZM24 160H28V164H24V160ZM40 160H44V164H40V160ZM44 160H48V164H44V160ZM48 160H52V164H48V160ZM56 160H60V164H56V160ZM60 160H64V164H60V160ZM64 160H68V164H64V160ZM68 160H72V164H68V160ZM72 160H76V164H72V160ZM76 160H80V164H76V160ZM88 160H92V164H88V160ZM108 160H112V164H108V160ZM116 160H120V164H116V160ZM124 160H128V164H124V160ZM128 160H132V164H128V160ZM144 160H148V164H144V160ZM148 160H152V164H148V160ZM164 160H168V164H164V160ZM168 160H172V164H168V160ZM172 160H176V164H172V160ZM180 160H184V164H180V160ZM192 160H196V164H192V160ZM200 160H204V164H200V160ZM204 160H208V164H204V160ZM208 160H212V164H208V160ZM216 160H220V164H216V160ZM240 160H244V164H240V160ZM244 160H248V164H244V160ZM12 164H16V168H12V164ZM16 164H20V168H16V164ZM24 164H28V168H24V164ZM28 164H32V168H28V164ZM36 164H40V168H36V164ZM48 164H52V168H48V164ZM56 164H60V168H56V164ZM60 164H64V168H60V164ZM64 164H68V168H64V164ZM68 164H72V168H68V164ZM76 164H80V168H76V164ZM88 164H92V168H88V164ZM96 164H100V168H96V164ZM104 164H108V168H104V164ZM108 164H112V168H108V164ZM112 164H116V168H112V164ZM120 164H124V168H120V164ZM124 164H128V168H124V164ZM128 164H132V168H128V164ZM132 164H136V168H132V164ZM136 164H140V168H136V164ZM140 164H144V168H140V164ZM144 164H148V168H144V164ZM148 164H152V168H148V164ZM156 164H160V168H156V164ZM160 164H164V168H160V164ZM176 164H180V168H176V164ZM180 164H184V168H180V164ZM188 164H192V168H188V164ZM200 164H204V168H200V164ZM208 164H212V168H208V164ZM212 164H216V168H212V164ZM220 164H224V168H220V164ZM228 164H232V168H228V164ZM236 164H240V168H236V164ZM4 168H8V172H4V168ZM8 168H12V172H8V168ZM12 168H16V172H12V168ZM16 168H20V172H16V168ZM24 168H28V172H24V168ZM44 168H48V172H44V168ZM56 168H60V172H56V168ZM64 168H68V172H64V168ZM72 168H76V172H72V168ZM76 168H80V172H76V168ZM80 168H84V172H80V168ZM84 168H88V172H84V168ZM96 168H100V172H96V168ZM112 168H116V172H112V168ZM116 168H120V172H116V168ZM120 168H124V172H120V168ZM124 168H128V172H124V168ZM128 168H132V172H128V168ZM144 168H148V172H144V168ZM164 168H168V172H164V168ZM168 168H172V172H168V168ZM172 168H176V172H172V168ZM184 168H188V172H184V168ZM188 168H192V172H188V168ZM196 168H200V172H196V168ZM204 168H208V172H204V168ZM208 168H212V172H208V168ZM212 168H216V172H212V168ZM220 168H224V172H220V168ZM228 168H232V172H228V168ZM4 172H8V176H4V172ZM20 172H24V176H20V172ZM24 172H28V176H24V172ZM28 172H32V176H28V172ZM32 172H36V176H32V172ZM40 172H44V176H40V172ZM56 172H60V176H56V172ZM60 172H64V176H60V172ZM76 172H80V176H76V172ZM84 172H88V176H84V172ZM88 172H92V176H88V172ZM104 172H108V176H104V172ZM112 172H116V176H112V172ZM120 172H124V176H120V172ZM124 172H128V176H124V172ZM140 172H144V176H140V172ZM144 172H148V176H144V172ZM148 172H152V176H148V172ZM152 172H156V176H152V172ZM156 172H160V176H156V172ZM168 172H172V176H168V172ZM176 172H180V176H176V172ZM188 172H192V176H188V172ZM196 172H200V176H196V172ZM200 172H204V176H200V172ZM204 172H208V176H204V172ZM212 172H216V176H212V172ZM216 172H220V176H216V172ZM220 172H224V176H220V172ZM224 172H228V176H224V172ZM236 172H240V176H236V172ZM240 172H244V176H240V172ZM244 172H248V176H244V172ZM4 176H8V180H4V176ZM8 176H12V180H8V176ZM12 176H16V180H12V176ZM16 176H20V180H16V176ZM36 176H40V180H36V176ZM44 176H48V180H44V176ZM48 176H52V180H48V176ZM52 176H56V180H52V176ZM56 176H60V180H56V176ZM64 176H68V180H64V176ZM76 176H80V180H76V176ZM80 176H84V180H80V176ZM84 176H88V180H84V176ZM88 176H92V180H88V176ZM96 176H100V180H96V176ZM100 176H104V180H100V176ZM112 176H116V180H112V176ZM116 176H120V180H116V176ZM128 176H132V180H128V176ZM148 176H152V180H148V176ZM152 176H156V180H152V176ZM156 176H160V180H156V176ZM160 176H164V180H160V176ZM164 176H168V180H164V176ZM176 176H180V180H176V176ZM184 176H188V180H184V176ZM188 176H192V180H188V176ZM196 176H200V180H196V176ZM216 176H220V180H216V176ZM220 176H224V180H220V176ZM240 176H244V180H240V176ZM244 176H248V180H244V176ZM4 180H8V184H4V180ZM8 180H12V184H8V180ZM12 180H16V184H12V180ZM20 180H24V184H20V180ZM28 180H32V184H28V180ZM36 180H40V184H36V180ZM40 180H44V184H40V180ZM44 180H48V184H44V180ZM60 180H64V184H60V180ZM64 180H68V184H64V180ZM76 180H80V184H76V180ZM80 180H84V184H80V180ZM84 180H88V184H84V180ZM92 180H96V184H92V180ZM100 180H104V184H100V180ZM104 180H108V184H104V180ZM108 180H112V184H108V180ZM112 180H116V184H112V180ZM116 180H120V184H116V180ZM120 180H124V184H120V180ZM124 180H128V184H124V180ZM128 180H132V184H128V180ZM136 180H140V184H136V180ZM140 180H144V184H140V180ZM148 180H152V184H148V180ZM156 180H160V184H156V180ZM160 180H164V184H160V180ZM196 180H200V184H196V180ZM204 180H208V184H204V180ZM220 180H224V184H220V180ZM224 180H228V184H224V180ZM228 180H232V184H228V180ZM232 180H236V184H232V180ZM236 180H240V184H236V180ZM244 180H248V184H244V180ZM4 184H8V188H4V184ZM16 184H20V188H16V184ZM20 184H24V188H20V184ZM24 184H28V188H24V184ZM32 184H36V188H32V184ZM36 184H40V188H36V184ZM48 184H52V188H48V184ZM56 184H60V188H56V184ZM76 184H80V188H76V184ZM84 184H88V188H84V184ZM88 184H92V188H88V184ZM92 184H96V188H92V184ZM100 184H104V188H100V184ZM112 184H116V188H112V184ZM120 184H124V188H120V184ZM124 184H128V188H124V184ZM128 184H132V188H128V184ZM148 184H152V188H148V184ZM156 184H160V188H156V184ZM160 184H164V188H160V184ZM168 184H172V188H168V184ZM172 184H176V188H172V184ZM176 184H180V188H176V184ZM184 184H188V188H184V184ZM196 184H200V188H196V184ZM220 184H224V188H220V184ZM224 184H228V188H224V184ZM232 184H236V188H232V184ZM236 184H240V188H236V184ZM240 184H244V188H240V184ZM8 188H12V192H8V188ZM12 188H16V192H12V188ZM16 188H20V192H16V188ZM20 188H24V192H20V188ZM28 188H32V192H28V188ZM32 188H36V192H32V188ZM44 188H48V192H44V188ZM52 188H56V192H52V188ZM60 188H64V192H60V188ZM76 188H80V192H76V188ZM80 188H84V192H80V188ZM84 188H88V192H84V188ZM92 188H96V192H92V188ZM112 188H116V192H112V188ZM116 188H120V192H116V188ZM124 188H128V192H124V188ZM128 188H132V192H128V188ZM136 188H140V192H136V188ZM140 188H144V192H140V188ZM148 188H152V192H148V188ZM152 188H156V192H152V188ZM160 188H164V192H160V188ZM168 188H172V192H168V188ZM180 188H184V192H180V188ZM188 188H192V192H188V188ZM200 188H204V192H200V188ZM220 188H224V192H220V188ZM228 188H232V192H228V188ZM232 188H236V192H232V188ZM4 192H8V196H4V192ZM8 192H12V196H8V192ZM20 192H24V196H20V192ZM32 192H36V196H32V192ZM36 192H40V196H36V192ZM40 192H44V196H40V192ZM52 192H56V196H52V192ZM64 192H68V196H64V192ZM72 192H76V196H72V192ZM80 192H84V196H80V192ZM84 192H88V196H84V192ZM88 192H92V196H88V192ZM92 192H96V196H92V192ZM100 192H104V196H100V192ZM108 192H112V196H108V192ZM112 192H116V196H112V192ZM120 192H124V196H120V192ZM124 192H128V196H124V192ZM140 192H144V196H140V192ZM152 192H156V196H152V192ZM160 192H164V196H160V192ZM164 192H168V196H164V192ZM180 192H184V196H180V192ZM184 192H188V196H184V192ZM208 192H212V196H208V192ZM216 192H220V196H216V192ZM220 192H224V196H220V192ZM224 192H228V196H224V192ZM228 192H232V196H228V192ZM232 192H236V196H232V192ZM244 192H248V196H244V192ZM4 196H8V200H4V196ZM12 196H16V200H12V196ZM28 196H32V200H28V196ZM32 196H36V200H32V196ZM36 196H40V200H36V196ZM48 196H52V200H48V196ZM56 196H60V200H56V196ZM60 196H64V200H60V196ZM92 196H96V200H92V196ZM100 196H104V200H100V196ZM104 196H108V200H104V196ZM108 196H112V200H108V196ZM112 196H116V200H112V196ZM116 196H120V200H116V196ZM128 196H132V200H128V196ZM148 196H152V200H148V196ZM164 196H168V200H164V196ZM168 196H172V200H168V196ZM184 196H188V200H184V196ZM192 196H196V200H192V196ZM196 196H200V200H196V196ZM200 196H204V200H200V196ZM204 196H208V200H204V196ZM208 196H212V200H208V196ZM216 196H220V200H216V196ZM220 196H224V200H220V196ZM224 196H228V200H224V196ZM236 196H240V200H236V196ZM244 196H248V200H244V196ZM4 200H8V204H4V200ZM12 200H16V204H12V200ZM16 200H20V204H16V200ZM20 200H24V204H20V200ZM24 200H28V204H24V200ZM32 200H36V204H32V200ZM36 200H40V204H36V200ZM40 200H44V204H40V200ZM44 200H48V204H44V200ZM48 200H52V204H48V200ZM52 200H56V204H52V200ZM56 200H60V204H56V200ZM60 200H64V204H60V200ZM64 200H68V204H64V200ZM72 200H76V204H72V200ZM80 200H84V204H80V200ZM84 200H88V204H84V200ZM88 200H92V204H88V200ZM96 200H100V204H96V200ZM108 200H112V204H108V200ZM120 200H124V204H120V200ZM136 200H140V204H136V200ZM140 200H144V204H140V200ZM144 200H148V204H144V200ZM148 200H152V204H148V200ZM152 200H156V204H152V200ZM156 200H160V204H156V200ZM160 200H164V204H160V200ZM176 200H180V204H176V200ZM184 200H188V204H184V200ZM188 200H192V204H188V200ZM196 200H200V204H196V200ZM204 200H208V204H204V200ZM220 200H224V204H220V200ZM224 200H228V204H224V200ZM228 200H232V204H228V200ZM232 200H236V204H232V200ZM236 200H240V204H236V200ZM12 204H16V208H12V204ZM16 204H20V208H16V204ZM20 204H24V208H20V204ZM24 204H28V208H24V204ZM28 204H32V208H28V204ZM40 204H44V208H40V204ZM52 204H56V208H52V204ZM56 204H60V208H56V204ZM88 204H92V208H88V204ZM112 204H116V208H112V204ZM120 204H124V208H120V204ZM128 204H132V208H128V204ZM132 204H136V208H132V204ZM136 204H140V208H136V204ZM140 204H144V208H140V204ZM144 204H148V208H144V204ZM148 204H152V208H148V204ZM156 204H160V208H156V204ZM168 204H172V208H168V204ZM176 204H180V208H176V204ZM184 204H188V208H184V204ZM188 204H192V208H188V204ZM200 204H204V208H200V204ZM204 204H208V208H204V204ZM208 204H212V208H208V204ZM216 204H220V208H216V204ZM220 204H224V208H220V204ZM228 204H232V208H228V204ZM232 204H236V208H232V204ZM240 204H244V208H240V204ZM244 204H248V208H244V204ZM4 208H8V212H4V208ZM8 208H12V212H8V208ZM12 208H16V212H12V208ZM20 208H24V212H20V208ZM52 208H56V212H52V208ZM56 208H60V212H56V208ZM60 208H64V212H60V208ZM64 208H68V212H64V208ZM72 208H76V212H72V208ZM76 208H80V212H76V208ZM80 208H84V212H80V208ZM88 208H92V212H88V208ZM96 208H100V212H96V208ZM112 208H116V212H112V208ZM116 208H120V212H116V208ZM140 208H144V212H140V208ZM148 208H152V212H148V208ZM152 208H156V212H152V208ZM160 208H164V212H160V208ZM176 208H180V212H176V208ZM184 208H188V212H184V208ZM200 208H204V212H200V208ZM204 208H208V212H204V208ZM220 208H224V212H220V208ZM232 208H236V212H232V208ZM240 208H244V212H240V208ZM244 208H248V212H244V208ZM4 212H8V216H4V212ZM8 212H12V216H8V212ZM12 212H16V216H12V212ZM16 212H20V216H16V212ZM28 212H32V216H28V212ZM32 212H36V216H32V212ZM36 212H40V216H36V212ZM40 212H44V216H40V212ZM48 212H52V216H48V212ZM52 212H56V216H52V212ZM68 212H72V216H68V212ZM84 212H88V216H84V212ZM88 212H92V216H88V212ZM96 212H100V216H96V212ZM112 212H116V216H112V212ZM116 212H120V216H116V212ZM120 212H124V216H120V212ZM124 212H128V216H124V212ZM128 212H132V216H128V212ZM132 212H136V216H132V212ZM136 212H140V216H136V212ZM140 212H144V216H140V212ZM144 212H148V216H144V212ZM148 212H152V216H148V212ZM172 212H176V216H172V212ZM180 212H184V216H180V212ZM184 212H188V216H184V212ZM188 212H192V216H188V212ZM200 212H204V216H200V212ZM212 212H216V216H212V212ZM216 212H220V216H216V212ZM220 212H224V216H220V212ZM224 212H228V216H224V212ZM228 212H232V216H228V212ZM232 212H236V216H232V212ZM240 212H244V216H240V212ZM36 216H40V220H36V216ZM40 216H44V220H40V216ZM52 216H56V220H52V216ZM64 216H68V220H64V216ZM72 216H76V220H72V216ZM84 216H88V220H84V216ZM108 216H112V220H108V216ZM112 216H116V220H112V216ZM116 216H120V220H116V216ZM132 216H136V220H132V216ZM140 216H144V220H140V216ZM148 216H152V220H148V216ZM152 216H156V220H152V216ZM156 216H160V220H156V216ZM160 216H164V220H160V216ZM180 216H184V220H180V216ZM184 216H188V220H184V216ZM188 216H192V220H188V216ZM192 216H196V220H192V216ZM196 216H200V220H196V216ZM204 216H208V220H204V216ZM208 216H212V220H208V216ZM212 216H216V220H212V216ZM228 216H232V220H228V216ZM232 216H236V220H232V216ZM236 216H240V220H236V216ZM4 220H8V224H4V220ZM8 220H12V224H8V220ZM12 220H16V224H12V220ZM16 220H20V224H16V220ZM20 220H24V224H20V220ZM24 220H28V224H24V220ZM28 220H32V224H28V220ZM36 220H40V224H36V220ZM40 220H44V224H40V220ZM44 220H48V224H44V220ZM48 220H52V224H48V220ZM64 220H68V224H64V220ZM68 220H72V224H68V220ZM72 220H76V224H72V220ZM96 220H100V224H96V220ZM100 220H104V224H100V220ZM112 220H116V224H112V220ZM116 220H120V224H116V220ZM124 220H128V224H124V220ZM132 220H136V224H132V220ZM136 220H140V224H136V220ZM144 220H148V224H144V220ZM156 220H160V224H156V220ZM160 220H164V224H160V220ZM172 220H176V224H172V220ZM192 220H196V224H192V220ZM208 220H212V224H208V220ZM212 220H216V224H212V220ZM220 220H224V224H220V220ZM228 220H232V224H228V220ZM232 220H236V224H232V220ZM236 220H240V224H236V220ZM240 220H244V224H240V220ZM244 220H248V224H244V220ZM4 224H8V228H4V224ZM28 224H32V228H28V224ZM40 224H44V228H40V224ZM44 224H48V228H44V224ZM52 224H56V228H52V224ZM64 224H68V228H64V224ZM68 224H72V228H68V224ZM84 224H88V228H84V224ZM88 224H92V228H88V224ZM104 224H108V228H104V224ZM112 224H116V228H112V224ZM116 224H120V228H116V224ZM132 224H136V228H132V224ZM136 224H140V228H136V224ZM144 224H148V228H144V224ZM148 224H152V228H148V224ZM172 224H176V228H172V224ZM180 224H184V228H180V224ZM192 224H196V228H192V224ZM200 224H204V228H200V224ZM208 224H212V228H208V224ZM212 224H216V228H212V224ZM228 224H232V228H228V224ZM236 224H240V228H236V224ZM240 224H244V228H240V224ZM4 228H8V232H4V228ZM12 228H16V232H12V228ZM16 228H20V232H16V228ZM20 228H24V232H20V228ZM28 228H32V232H28V228ZM36 228H40V232H36V228ZM44 228H48V232H44V228ZM48 228H52V232H48V228ZM64 228H68V232H64V228ZM72 228H76V232H72V228ZM80 228H84V232H80V228ZM88 228H92V232H88V228ZM92 228H96V232H92V228ZM96 228H100V232H96V228ZM112 228H116V232H112V228ZM116 228H120V232H116V228ZM120 228H124V232H120V228ZM124 228H128V232H124V228ZM128 228H132V232H128V228ZM132 228H136V232H132V228ZM136 228H140V232H136V228ZM144 228H148V232H144V228ZM148 228H152V232H148V228ZM156 228H160V232H156V228ZM160 228H164V232H160V228ZM164 228H168V232H164V228ZM176 228H180V232H176V228ZM184 228H188V232H184V228ZM188 228H192V232H188V228ZM208 228H212V232H208V228ZM212 228H216V232H212V228ZM216 228H220V232H216V228ZM220 228H224V232H220V228ZM224 228H228V232H224V228ZM228 228H232V232H228V228ZM236 228H240V232H236V228ZM240 228H244V232H240V228ZM244 228H248V232H244V228ZM4 232H8V236H4V232ZM12 232H16V236H12V232ZM16 232H20V236H16V232ZM20 232H24V236H20V232ZM28 232H32V236H28V232ZM36 232H40V236H36V232ZM44 232H48V236H44V232ZM56 232H60V236H56V232ZM64 232H68V236H64V232ZM76 232H80V236H76V232ZM100 232H104V236H100V232ZM104 232H108V236H104V232ZM112 232H116V236H112V232ZM120 232H124V236H120V232ZM132 232H136V236H132V232ZM136 232H140V236H136V232ZM140 232H144V236H140V232ZM156 232H160V236H156V232ZM164 232H168V236H164V232ZM172 232H176V236H172V232ZM184 232H188V236H184V232ZM188 232H192V236H188V232ZM208 232H212V236H208V232ZM212 232H216V236H212V232ZM224 232H228V236H224V232ZM228 232H232V236H228V232ZM244 232H248V236H244V232ZM4 236H8V240H4V236ZM12 236H16V240H12V236ZM16 236H20V240H16V236ZM20 236H24V240H20V236ZM28 236H32V240H28V236ZM36 236H40V240H36V236ZM40 236H44V240H40V236ZM48 236H52V240H48V236ZM52 236H56V240H52V236ZM56 236H60V240H56V236ZM60 236H64V240H60V236ZM64 236H68V240H64V236ZM68 236H72V240H68V236ZM76 236H80V240H76V236ZM80 236H84V240H80V236ZM88 236H92V240H88V236ZM124 236H128V240H124V236ZM136 236H140V240H136V236ZM140 236H144V240H140V236ZM144 236H148V240H144V236ZM148 236H152V240H148V236ZM160 236H164V240H160V236ZM164 236H168V240H164V236ZM172 236H176V240H172V236ZM176 236H180V240H176V236ZM184 236H188V240H184V236ZM192 236H196V240H192V236ZM196 236H200V240H196V236ZM204 236H208V240H204V236ZM212 236H216V240H212V236ZM228 236H232V240H228V236ZM232 236H236V240H232V236ZM244 236H248V240H244V236ZM4 240H8V244H4V240ZM28 240H32V244H28V240ZM36 240H40V244H36V240ZM40 240H44V244H40V240ZM44 240H48V244H44V240ZM64 240H68V244H64V240ZM72 240H76V244H72V240ZM76 240H80V244H76V240ZM96 240H100V244H96V240ZM100 240H104V244H100V240ZM104 240H108V244H104V240ZM108 240H112V244H108V240ZM112 240H116V244H112V240ZM116 240H120V244H116V240ZM124 240H128V244H124V240ZM128 240H132V244H128V240ZM148 240H152V244H148V240ZM156 240H160V244H156V240ZM160 240H164V244H160V240ZM168 240H172V244H168V240ZM172 240H176V244H172V240ZM188 240H192V244H188V240ZM196 240H200V244H196V240ZM200 240H204V244H200V240ZM204 240H208V244H204V240ZM208 240H212V244H208V240ZM220 240H224V244H220V240ZM224 240H228V244H224V240ZM232 240H236V244H232V240ZM4 244H8V248H4V244ZM8 244H12V248H8V244ZM12 244H16V248H12V244ZM16 244H20V248H16V244ZM20 244H24V248H20V244ZM24 244H28V248H24V244ZM28 244H32V248H28V244ZM36 244H40V248H36V244ZM44 244H48V248H44V244ZM48 244H52V248H48V244ZM52 244H56V248H52V244ZM64 244H68V248H64V244ZM72 244H76V248H72V244ZM76 244H80V248H76V244ZM92 244H96V248H92V244ZM96 244H100V248H96V244ZM108 244H112V248H108V244ZM112 244H116V248H112V244ZM116 244H120V248H116V244ZM120 244H124V248H120V244ZM128 244H132V248H128V244ZM140 244H144V248H140V244ZM156 244H160V248H156V244ZM176 244H180V248H176V244ZM192 244H196V248H192V244ZM196 244H200V248H196V244ZM200 244H204V248H200V244ZM216 244H220V248H216V244ZM228 244H232V248H228V244ZM232 244H236V248H232V244ZM244 244H248V248H244V244Z" fill="black"/>
</svg>
