<svg width="17" height="18" viewBox="0 0 17 18" fill="none" xmlns="http://www.w3.org/2000/svg">
<path fill-rule="evenodd" clip-rule="evenodd" d="M0.437766 7.70566C0.213992 7.99208 0.264775 8.40567 0.551193 8.62944C0.598191 8.66599 0.649931 8.69598 0.704996 8.71861C0.706271 8.71907 0.707548 8.71953 0.708826 8.71998L4.58661 10.9471L4.40828 13.3133L13.9543 3.23291L6.48271 14.934L8.73545 14.1885L11.8355 17.4131C11.871 17.4621 11.9131 17.5059 11.9605 17.5434C12.2469 17.7672 12.6605 17.7164 12.8843 17.43C12.9378 17.3607 12.9769 17.2815 12.9995 17.197L13.0013 17.1967L13.0075 17.1657L13.0112 17.1506C13.0119 17.1463 13.0126 17.1419 13.0132 17.1376L16.2113 1.32943L16.2101 1.32684C16.2777 1.07247 16.1873 0.802285 15.9801 0.639882C15.7721 0.477364 15.487 0.455171 15.2562 0.583174C15.2558 0.58291 15.2555 0.582646 15.2552 0.582383L15.2544 0.583396L0.695464 7.50735C0.675101 7.51581 0.655176 7.52529 0.635764 7.53575C0.559087 7.5786 0.491846 7.63644 0.437766 7.70566Z" fill="black"/>
</svg>
